# xmcd
#
# Track frame offsets: 
#        150
#        23678
#        42266
#        68106
#        90602
#        116486
#        137258
#        159845
#        186531
#        205323
#
# Disc length: 3015 seconds
#
# Revision: 0
# Processed by: cddbd v1.5.2PL0 Copyright (c) Steve Scherf et al.
# Submitted via: ExactAudioCopy v1.0b1
#
DISCID=7e0bc50a
DTITLE=Cẩm Ly - Chuyện tình hoa bướm
DYEAR=2010
DGENRE=Pop
TTITLE0=Chuyện Tình Hoa Bướm
TTITLE1=Một đời yêu anh
TTITLE2=Mưa chiều kỉ niệm
TTITLE3=Sầu lẻ bóng
TTITLE4=Mẹ miền Trung
TTITLE5=Ngày vui qua mau
TTITLE6=Thương về miền Trung
TTITLE7=Đường xưa lối cũ
TTITLE8=Hoàng tử trong mơ
TTITLE9=Rồi tình yêu đến
EXTD=
EXTT0=
EXTT1=
EXTT2=
EXTT3=
EXTT4=
EXTT5=
EXTT6=
EXTT7=
EXTT8=
EXTT9=
PLAYORDER=
